ISO-10303-21;
HEADER;
/* Generated by software containing ST-Developer
 * from STEP Tools, Inc. (www.steptools.com) 
 */
/* OPTION: using custom renumber hook */

FILE_DESCRIPTION(
/* description */ ('STEP AP242 Edition 2',
'CAx-IF Rec.Pracs.---Representation and Presentation of Product Manufa
cturing Information (PMI)---4.0---2014-10-13',
'CAx-IF Rec.Pracs.---3D Tessellated Geometry---0.4---2014-09-14','2;1',
'CAx-IF Rec.Pracs.---User Defined Attributes---1.5---2016-08-15'),
/* implementation_level */ '2;1');

FILE_NAME(
/* name */ 'Handrest - Part 1',
/* time_stamp */ '2026-08-18T01:26:58Z',
/* author */ (''),
/* organization */ (''),
/* preprocessor_version */ 'ST-DEVELOPER v20',
/* originating_system */ 'ONSHAPE BY PTC INC, 1.219',
/* authorisation */ '  ');

FILE_SCHEMA (('AP242_MANAGED_MODEL_BASED_3D_ENGINEERING_MIM_LF { 1 0 10303 442 3 1 4 }'));
ENDSEC;

DATA;
#10=SHAPE_REPRESENTATION_RELATIONSHIP('','',#391,#11);
#11=ADVANCED_BREP_SHAPE_REPRESENTATION('',(#389),#621);
#12=ORIENTED_EDGE('',*,*,#108,.T.);
#13=ORIENTED_EDGE('',*,*,#109,.T.);
#14=ORIENTED_EDGE('',*,*,#110,.T.);
#15=ORIENTED_EDGE('',*,*,#111,.T.);
#16=ORIENTED_EDGE('',*,*,#112,.T.);
#17=ORIENTED_EDGE('',*,*,#113,.T.);
#18=ORIENTED_EDGE('',*,*,#114,.T.);
#19=ORIENTED_EDGE('',*,*,#115,.T.);
#20=ORIENTED_EDGE('',*,*,#116,.T.);
#21=ORIENTED_EDGE('',*,*,#117,.T.);
#22=ORIENTED_EDGE('',*,*,#118,.T.);
#23=ORIENTED_EDGE('',*,*,#119,.T.);
#24=ORIENTED_EDGE('',*,*,#120,.T.);
#25=ORIENTED_EDGE('',*,*,#121,.T.);
#26=ORIENTED_EDGE('',*,*,#122,.T.);
#27=ORIENTED_EDGE('',*,*,#123,.T.);
#28=ORIENTED_EDGE('',*,*,#124,.T.);
#29=ORIENTED_EDGE('',*,*,#125,.T.);
#30=ORIENTED_EDGE('',*,*,#126,.T.);
#31=ORIENTED_EDGE('',*,*,#127,.T.);
#32=ORIENTED_EDGE('',*,*,#128,.T.);
#33=ORIENTED_EDGE('',*,*,#129,.T.);
#34=ORIENTED_EDGE('',*,*,#130,.T.);
#35=ORIENTED_EDGE('',*,*,#131,.T.);
#36=ORIENTED_EDGE('',*,*,#132,.F.);
#37=ORIENTED_EDGE('',*,*,#115,.F.);
#38=ORIENTED_EDGE('',*,*,#133,.F.);
#39=ORIENTED_EDGE('',*,*,#121,.F.);
#40=ORIENTED_EDGE('',*,*,#134,.F.);
#41=ORIENTED_EDGE('',*,*,#132,.T.);
#42=ORIENTED_EDGE('',*,*,#135,.F.);
#43=ORIENTED_EDGE('',*,*,#136,.F.);
#44=ORIENTED_EDGE('',*,*,#133,.T.);
#45=ORIENTED_EDGE('',*,*,#137,.F.);
#46=ORIENTED_EDGE('',*,*,#135,.T.);
#47=ORIENTED_EDGE('',*,*,#120,.F.);
#48=ORIENTED_EDGE('',*,*,#138,.F.);
#49=ORIENTED_EDGE('',*,*,#129,.F.);
#50=ORIENTED_EDGE('',*,*,#134,.T.);
#51=ORIENTED_EDGE('',*,*,#128,.F.);
#52=ORIENTED_EDGE('',*,*,#139,.F.);
#53=ORIENTED_EDGE('',*,*,#112,.F.);
#54=ORIENTED_EDGE('',*,*,#140,.F.);
#55=ORIENTED_EDGE('',*,*,#113,.F.);
#56=ORIENTED_EDGE('',*,*,#141,.F.);
#57=ORIENTED_EDGE('',*,*,#108,.F.);
#58=ORIENTED_EDGE('',*,*,#137,.T.);
#59=ORIENTED_EDGE('',*,*,#114,.F.);
#60=ORIENTED_EDGE('',*,*,#142,.F.);
#61=ORIENTED_EDGE('',*,*,#124,.F.);
#62=ORIENTED_EDGE('',*,*,#136,.T.);
#63=ORIENTED_EDGE('',*,*,#127,.F.);
#64=ORIENTED_EDGE('',*,*,#143,.F.);
#65=ORIENTED_EDGE('',*,*,#122,.F.);
#66=ORIENTED_EDGE('',*,*,#144,.F.);
#67=ORIENTED_EDGE('',*,*,#123,.F.);
#68=ORIENTED_EDGE('',*,*,#145,.F.);
#69=ORIENTED_EDGE('',*,*,#119,.F.);
#70=ORIENTED_EDGE('',*,*,#138,.T.);
#71=ORIENTED_EDGE('',*,*,#144,.T.);
#72=ORIENTED_EDGE('',*,*,#146,.F.);
#73=ORIENTED_EDGE('',*,*,#141,.T.);
#74=ORIENTED_EDGE('',*,*,#139,.T.);
#75=ORIENTED_EDGE('',*,*,#147,.F.);
#76=ORIENTED_EDGE('',*,*,#142,.T.);
#77=ORIENTED_EDGE('',*,*,#140,.T.);
#78=ORIENTED_EDGE('',*,*,#148,.F.);
#79=ORIENTED_EDGE('',*,*,#145,.T.);
#80=ORIENTED_EDGE('',*,*,#143,.T.);
#81=ORIENTED_EDGE('',*,*,#149,.F.);
#82=ORIENTED_EDGE('',*,*,#146,.T.);
#83=ORIENTED_EDGE('',*,*,#118,.F.);
#84=ORIENTED_EDGE('',*,*,#150,.F.);
#85=ORIENTED_EDGE('',*,*,#130,.F.);
#86=ORIENTED_EDGE('',*,*,#147,.T.);
#87=ORIENTED_EDGE('',*,*,#131,.F.);
#88=ORIENTED_EDGE('',*,*,#151,.F.);
#89=ORIENTED_EDGE('',*,*,#109,.F.);
#90=ORIENTED_EDGE('',*,*,#148,.T.);
#91=ORIENTED_EDGE('',*,*,#111,.F.);
#92=ORIENTED_EDGE('',*,*,#152,.F.);
#93=ORIENTED_EDGE('',*,*,#125,.F.);
#94=ORIENTED_EDGE('',*,*,#149,.T.);
#95=ORIENTED_EDGE('',*,*,#126,.F.);
#96=ORIENTED_EDGE('',*,*,#153,.F.);
#97=ORIENTED_EDGE('',*,*,#116,.F.);
#98=ORIENTED_EDGE('',*,*,#151,.T.);
#99=ORIENTED_EDGE('',*,*,#150,.T.);
#100=ORIENTED_EDGE('',*,*,#154,.F.);
#101=ORIENTED_EDGE('',*,*,#153,.T.);
#102=ORIENTED_EDGE('',*,*,#152,.T.);
#103=ORIENTED_EDGE('',*,*,#155,.F.);
#104=ORIENTED_EDGE('',*,*,#154,.T.);
#105=ORIENTED_EDGE('',*,*,#117,.F.);
#106=ORIENTED_EDGE('',*,*,#155,.T.);
#107=ORIENTED_EDGE('',*,*,#110,.F.);
#108=EDGE_CURVE('',#156,#157,#180,.T.);
#109=EDGE_CURVE('',#157,#158,#181,.T.);
#110=EDGE_CURVE('',#158,#159,#182,.T.);
#111=EDGE_CURVE('',#159,#156,#183,.T.);
#112=EDGE_CURVE('',#160,#161,#184,.T.);
#113=EDGE_CURVE('',#161,#162,#185,.T.);
#114=EDGE_CURVE('',#162,#163,#186,.T.);
#115=EDGE_CURVE('',#163,#160,#187,.T.);
#116=EDGE_CURVE('',#164,#165,#188,.T.);
#117=EDGE_CURVE('',#165,#166,#189,.T.);
#118=EDGE_CURVE('',#166,#167,#190,.T.);
#119=EDGE_CURVE('',#167,#164,#191,.T.);
#120=EDGE_CURVE('',#168,#169,#192,.T.);
#121=EDGE_CURVE('',#169,#170,#193,.T.);
#122=EDGE_CURVE('',#170,#171,#194,.T.);
#123=EDGE_CURVE('',#171,#168,#195,.T.);
#124=EDGE_CURVE('',#172,#173,#196,.T.);
#125=EDGE_CURVE('',#173,#174,#197,.T.);
#126=EDGE_CURVE('',#174,#175,#198,.T.);
#127=EDGE_CURVE('',#175,#172,#199,.T.);
#128=EDGE_CURVE('',#176,#177,#200,.T.);
#129=EDGE_CURVE('',#177,#178,#201,.T.);
#130=EDGE_CURVE('',#178,#179,#202,.T.);
#131=EDGE_CURVE('',#179,#176,#203,.T.);
#132=EDGE_CURVE('',#160,#169,#204,.F.);
#133=EDGE_CURVE('',#170,#163,#205,.F.);
#134=EDGE_CURVE('',#160,#177,#206,.T.);
#135=EDGE_CURVE('',#177,#169,#207,.T.);
#136=EDGE_CURVE('',#170,#172,#208,.F.);
#137=EDGE_CURVE('',#172,#163,#209,.F.);
#138=EDGE_CURVE('',#178,#168,#210,.F.);
#139=EDGE_CURVE('',#161,#176,#211,.F.);
#140=EDGE_CURVE('',#162,#156,#212,.T.);
#141=EDGE_CURVE('',#157,#161,#213,.T.);
#142=EDGE_CURVE('',#173,#162,#214,.T.);
#143=EDGE_CURVE('',#171,#175,#215,.T.);
#144=EDGE_CURVE('',#168,#167,#216,.T.);
#145=EDGE_CURVE('',#164,#171,#217,.T.);
#146=EDGE_CURVE('',#178,#167,#218,.F.);
#147=EDGE_CURVE('',#157,#176,#219,.F.);
#148=EDGE_CURVE('',#173,#156,#220,.T.);
#149=EDGE_CURVE('',#164,#175,#221,.T.);
#150=EDGE_CURVE('',#179,#166,#222,.T.);
#151=EDGE_CURVE('',#158,#179,#223,.T.);
#152=EDGE_CURVE('',#174,#159,#224,.F.);
#153=EDGE_CURVE('',#165,#174,#225,.F.);
#154=EDGE_CURVE('',#158,#166,#226,.T.);
#155=EDGE_CURVE('',#165,#159,#227,.T.);
#156=VERTEX_POINT('',#524);
#157=VERTEX_POINT('',#525);
#158=VERTEX_POINT('',#527);
#159=VERTEX_POINT('',#529);
#160=VERTEX_POINT('',#533);
#161=VERTEX_POINT('',#534);
#162=VERTEX_POINT('',#536);
#163=VERTEX_POINT('',#538);
#164=VERTEX_POINT('',#542);
#165=VERTEX_POINT('',#543);
#166=VERTEX_POINT('',#545);
#167=VERTEX_POINT('',#547);
#168=VERTEX_POINT('',#551);
#169=VERTEX_POINT('',#552);
#170=VERTEX_POINT('',#554);
#171=VERTEX_POINT('',#556);
#172=VERTEX_POINT('',#560);
#173=VERTEX_POINT('',#561);
#174=VERTEX_POINT('',#563);
#175=VERTEX_POINT('',#565);
#176=VERTEX_POINT('',#569);
#177=VERTEX_POINT('',#570);
#178=VERTEX_POINT('',#572);
#179=VERTEX_POINT('',#574);
#180=LINE('',#523,#228);
#181=LINE('',#526,#229);
#182=LINE('',#528,#230);
#183=LINE('',#530,#231);
#184=LINE('',#532,#232);
#185=LINE('',#535,#233);
#186=LINE('',#537,#234);
#187=LINE('',#539,#235);
#188=LINE('',#541,#236);
#189=LINE('',#544,#237);
#190=LINE('',#546,#238);
#191=LINE('',#548,#239);
#192=LINE('',#550,#240);
#193=LINE('',#553,#241);
#194=LINE('',#555,#242);
#195=LINE('',#557,#243);
#196=LINE('',#559,#244);
#197=LINE('',#562,#245);
#198=LINE('',#564,#246);
#199=LINE('',#566,#247);
#200=LINE('',#568,#248);
#201=LINE('',#571,#249);
#202=LINE('',#573,#250);
#203=LINE('',#575,#251);
#204=LINE('',#577,#252);
#205=LINE('',#578,#253);
#206=LINE('',#580,#254);
#207=LINE('',#581,#255);
#208=LINE('',#583,#256);
#209=LINE('',#584,#257);
#210=LINE('',#586,#258);
#211=LINE('',#588,#259);
#212=LINE('',#590,#260);
#213=LINE('',#591,#261);
#214=LINE('',#593,#262);
#215=LINE('',#595,#263);
#216=LINE('',#597,#264);
#217=LINE('',#598,#265);
#218=LINE('',#600,#266);
#219=LINE('',#602,#267);
#220=LINE('',#604,#268);
#221=LINE('',#606,#269);
#222=LINE('',#608,#270);
#223=LINE('',#610,#271);
#224=LINE('',#612,#272);
#225=LINE('',#614,#273);
#226=LINE('',#616,#274);
#227=LINE('',#618,#275);
#228=VECTOR('',#423,1.);
#229=VECTOR('',#424,1.);
#230=VECTOR('',#425,1.);
#231=VECTOR('',#426,1.);
#232=VECTOR('',#429,1.);
#233=VECTOR('',#430,1.);
#234=VECTOR('',#431,1.);
#235=VECTOR('',#432,1.);
#236=VECTOR('',#435,1.);
#237=VECTOR('',#436,1.);
#238=VECTOR('',#437,1.);
#239=VECTOR('',#438,1.);
#240=VECTOR('',#441,1.);
#241=VECTOR('',#442,1.);
#242=VECTOR('',#443,1.);
#243=VECTOR('',#444,1.);
#244=VECTOR('',#447,1.);
#245=VECTOR('',#448,1.);
#246=VECTOR('',#449,1.);
#247=VECTOR('',#450,1.);
#248=VECTOR('',#453,1.);
#249=VECTOR('',#454,1.);
#250=VECTOR('',#455,1.);
#251=VECTOR('',#456,1.);
#252=VECTOR('',#459,1.);
#253=VECTOR('',#460,1.);
#254=VECTOR('',#463,1.);
#255=VECTOR('',#464,1.);
#256=VECTOR('',#467,1.);
#257=VECTOR('',#468,1.);
#258=VECTOR('',#471,1.);
#259=VECTOR('',#474,1.);
#260=VECTOR('',#477,1.);
#261=VECTOR('',#478,1.);
#262=VECTOR('',#481,1.);
#263=VECTOR('',#484,1.);
#264=VECTOR('',#487,1.);
#265=VECTOR('',#488,1.);
#266=VECTOR('',#491,1.);
#267=VECTOR('',#494,1.);
#268=VECTOR('',#497,1.);
#269=VECTOR('',#500,1.);
#270=VECTOR('',#503,1.);
#271=VECTOR('',#506,1.);
#272=VECTOR('',#509,1.);
#273=VECTOR('',#512,1.);
#274=VECTOR('',#515,1.);
#275=VECTOR('',#518,1.);
#276=EDGE_LOOP('',(#12,#13,#14,#15));
#277=EDGE_LOOP('',(#16,#17,#18,#19));
#278=EDGE_LOOP('',(#20,#21,#22,#23));
#279=EDGE_LOOP('',(#24,#25,#26,#27));
#280=EDGE_LOOP('',(#28,#29,#30,#31));
#281=EDGE_LOOP('',(#32,#33,#34,#35));
#282=EDGE_LOOP('',(#36,#37,#38,#39));
#283=EDGE_LOOP('',(#40,#41,#42));
#284=EDGE_LOOP('',(#43,#44,#45));
#285=EDGE_LOOP('',(#46,#47,#48,#49));
#286=EDGE_LOOP('',(#50,#51,#52,#53));
#287=EDGE_LOOP('',(#54,#55,#56,#57));
#288=EDGE_LOOP('',(#58,#59,#60,#61));
#289=EDGE_LOOP('',(#62,#63,#64,#65));
#290=EDGE_LOOP('',(#66,#67,#68,#69));
#291=EDGE_LOOP('',(#70,#71,#72));
#292=EDGE_LOOP('',(#73,#74,#75));
#293=EDGE_LOOP('',(#76,#77,#78));
#294=EDGE_LOOP('',(#79,#80,#81));
#295=EDGE_LOOP('',(#82,#83,#84,#85));
#296=EDGE_LOOP('',(#86,#87,#88,#89));
#297=EDGE_LOOP('',(#90,#91,#92,#93));
#298=EDGE_LOOP('',(#94,#95,#96,#97));
#299=EDGE_LOOP('',(#98,#99,#100));
#300=EDGE_LOOP('',(#101,#102,#103));
#301=EDGE_LOOP('',(#104,#105,#106,#107));
#302=FACE_BOUND('',#276,.T.);
#303=FACE_BOUND('',#277,.T.);
#304=FACE_BOUND('',#278,.T.);
#305=FACE_BOUND('',#279,.T.);
#306=FACE_BOUND('',#280,.T.);
#307=FACE_BOUND('',#281,.T.);
#308=FACE_BOUND('',#282,.T.);
#309=FACE_BOUND('',#283,.T.);
#310=FACE_BOUND('',#284,.T.);
#311=FACE_BOUND('',#285,.T.);
#312=FACE_BOUND('',#286,.T.);
#313=FACE_BOUND('',#287,.T.);
#314=FACE_BOUND('',#288,.T.);
#315=FACE_BOUND('',#289,.T.);
#316=FACE_BOUND('',#290,.T.);
#317=FACE_BOUND('',#291,.T.);
#318=FACE_BOUND('',#292,.T.);
#319=FACE_BOUND('',#293,.T.);
#320=FACE_BOUND('',#294,.T.);
#321=FACE_BOUND('',#295,.T.);
#322=FACE_BOUND('',#296,.T.);
#323=FACE_BOUND('',#297,.T.);
#324=FACE_BOUND('',#298,.T.);
#325=FACE_BOUND('',#299,.T.);
#326=FACE_BOUND('',#300,.T.);
#327=FACE_BOUND('',#301,.T.);
#328=PLANE('',#393);
#329=PLANE('',#394);
#330=PLANE('',#395);
#331=PLANE('',#396);
#332=PLANE('',#397);
#333=PLANE('',#398);
#334=PLANE('',#399);
#335=PLANE('',#400);
#336=PLANE('',#401);
#337=PLANE('',#402);
#338=PLANE('',#403);
#339=PLANE('',#404);
#340=PLANE('',#405);
#341=PLANE('',#406);
#342=PLANE('',#407);
#343=PLANE('',#408);
#344=PLANE('',#409);
#345=PLANE('',#410);
#346=PLANE('',#411);
#347=PLANE('',#412);
#348=PLANE('',#413);
#349=PLANE('',#414);
#350=PLANE('',#415);
#351=PLANE('',#416);
#352=PLANE('',#417);
#353=PLANE('',#418);
#354=ADVANCED_FACE('',(#302),#328,.F.);
#355=ADVANCED_FACE('',(#303),#329,.T.);
#356=ADVANCED_FACE('',(#304),#330,.F.);
#357=ADVANCED_FACE('',(#305),#331,.T.);
#358=ADVANCED_FACE('',(#306),#332,.F.);
#359=ADVANCED_FACE('',(#307),#333,.T.);
#360=ADVANCED_FACE('',(#308),#334,.F.);
#361=ADVANCED_FACE('',(#309),#335,.T.);
#362=ADVANCED_FACE('',(#310),#336,.T.);
#363=ADVANCED_FACE('',(#311),#337,.F.);
#364=ADVANCED_FACE('',(#312),#338,.F.);
#365=ADVANCED_FACE('',(#313),#339,.T.);
#366=ADVANCED_FACE('',(#314),#340,.T.);
#367=ADVANCED_FACE('',(#315),#341,.T.);
#368=ADVANCED_FACE('',(#316),#342,.T.);
#369=ADVANCED_FACE('',(#317),#343,.T.);
#370=ADVANCED_FACE('',(#318),#344,.T.);
#371=ADVANCED_FACE('',(#319),#345,.T.);
#372=ADVANCED_FACE('',(#320),#346,.T.);
#373=ADVANCED_FACE('',(#321),#347,.T.);
#374=ADVANCED_FACE('',(#322),#348,.T.);
#375=ADVANCED_FACE('',(#323),#349,.F.);
#376=ADVANCED_FACE('',(#324),#350,.F.);
#377=ADVANCED_FACE('',(#325),#351,.T.);
#378=ADVANCED_FACE('',(#326),#352,.T.);
#379=ADVANCED_FACE('',(#327),#353,.F.);
#380=CLOSED_SHELL('',(#354,#355,#356,#357,#358,#359,#360,#361,#362,#363,
#364,#365,#366,#367,#368,#369,#370,#371,#372,#373,#374,#375,#376,#377,#378,
#379));
#381=STYLED_ITEM('',(#382),#389);
#382=PRESENTATION_STYLE_ASSIGNMENT((#383));
#383=SURFACE_STYLE_USAGE(.BOTH.,#384);
#384=SURFACE_SIDE_STYLE('',(#385));
#385=SURFACE_STYLE_FILL_AREA(#386);
#386=FILL_AREA_STYLE('',(#387));
#387=FILL_AREA_STYLE_COLOUR('',#388);
#388=COLOUR_RGB('',0.615686274509804,0.811764705882353,0.929411764705882);
#389=MANIFOLD_SOLID_BREP('Part 1',#380);
#390=SHAPE_DEFINITION_REPRESENTATION(#626,#391);
#391=SHAPE_REPRESENTATION('Part 1',(#392),#621);
#392=AXIS2_PLACEMENT_3D('',#521,#419,#420);
#393=AXIS2_PLACEMENT_3D('',#522,#421,#422);
#394=AXIS2_PLACEMENT_3D('',#531,#427,#428);
#395=AXIS2_PLACEMENT_3D('',#540,#433,#434);
#396=AXIS2_PLACEMENT_3D('',#549,#439,#440);
#397=AXIS2_PLACEMENT_3D('',#558,#445,#446);
#398=AXIS2_PLACEMENT_3D('',#567,#451,#452);
#399=AXIS2_PLACEMENT_3D('',#576,#457,#458);
#400=AXIS2_PLACEMENT_3D('',#579,#461,#462);
#401=AXIS2_PLACEMENT_3D('',#582,#465,#466);
#402=AXIS2_PLACEMENT_3D('',#585,#469,#470);
#403=AXIS2_PLACEMENT_3D('',#587,#472,#473);
#404=AXIS2_PLACEMENT_3D('',#589,#475,#476);
#405=AXIS2_PLACEMENT_3D('',#592,#479,#480);
#406=AXIS2_PLACEMENT_3D('',#594,#482,#483);
#407=AXIS2_PLACEMENT_3D('',#596,#485,#486);
#408=AXIS2_PLACEMENT_3D('',#599,#489,#490);
#409=AXIS2_PLACEMENT_3D('',#601,#492,#493);
#410=AXIS2_PLACEMENT_3D('',#603,#495,#496);
#411=AXIS2_PLACEMENT_3D('',#605,#498,#499);
#412=AXIS2_PLACEMENT_3D('',#607,#501,#502);
#413=AXIS2_PLACEMENT_3D('',#609,#504,#505);
#414=AXIS2_PLACEMENT_3D('',#611,#507,#508);
#415=AXIS2_PLACEMENT_3D('',#613,#510,#511);
#416=AXIS2_PLACEMENT_3D('',#615,#513,#514);
#417=AXIS2_PLACEMENT_3D('',#617,#516,#517);
#418=AXIS2_PLACEMENT_3D('',#619,#519,#520);
#419=DIRECTION('',(0.,0.,1.));
#420=DIRECTION('',(1.,0.,0.));
#421=DIRECTION('',(0.,1.,0.));
#422=DIRECTION('',(0.,0.,1.));
#423=DIRECTION('',(0.,0.,1.));
#424=DIRECTION('',(-1.,0.,0.));
#425=DIRECTION('',(0.,0.,-1.));
#426=DIRECTION('',(1.,0.,0.));
#427=DIRECTION('',(1.,0.,0.));
#428=DIRECTION('',(0.,0.,-1.));
#429=DIRECTION('',(0.,-0.998106758359145,-0.0615052755281972));
#430=DIRECTION('',(0.,0.,-1.));
#431=DIRECTION('',(0.,1.,0.));
#432=DIRECTION('',(0.,0.,1.));
#433=DIRECTION('',(0.992546151641322,0.121869343405148,0.));
#434=DIRECTION('',(-0.121869343405148,0.992546151641322,0.));
#435=DIRECTION('',(0.121869343405148,-0.992546151641322,0.));
#436=DIRECTION('',(0.,0.,1.));
#437=DIRECTION('',(-0.121642032513503,0.990694852992911,0.0610485395348566));
#438=DIRECTION('',(0.,0.,-1.));
#439=DIRECTION('',(0.,1.,0.));
#440=DIRECTION('',(0.,0.,1.));
#441=DIRECTION('',(1.,0.,0.));
#442=DIRECTION('',(0.,0.,-1.));
#443=DIRECTION('',(-1.,0.,0.));
#444=DIRECTION('',(0.,0.,1.));
#445=DIRECTION('',(0.,0.,1.));
#446=DIRECTION('',(1.,0.,0.));
#447=DIRECTION('',(0.,-1.,0.));
#448=DIRECTION('',(-1.,0.,0.));
#449=DIRECTION('',(-0.121869343405148,0.992546151641322,0.));
#450=DIRECTION('',(1.,0.,0.));
#451=DIRECTION('',(0.,-0.0615052755281972,0.998106758359145));
#452=DIRECTION('',(0.,-0.998106758359145,-0.0615052755281972));
#453=DIRECTION('',(0.,0.998106758359145,0.0615052755281972));
#454=DIRECTION('',(-1.,0.,0.));
#455=DIRECTION('',(0.121642032513503,-0.990694852992911,-0.0610485395348566));
#456=DIRECTION('',(1.,0.,0.));
#457=DIRECTION('',(-0.707106781186543,-0.707106781186552,0.));
#458=DIRECTION('',(0.,0.,-1.));
#459=DIRECTION('',(0.706394629112853,-0.706394629112843,-0.0448693204878812));
#460=DIRECTION('',(-0.707106781186552,0.707106781186543,0.));
#461=DIRECTION('',(0.590291373979453,0.552938494198887,0.588060469202375));
#462=DIRECTION('',(0.705766792322505,0.,-0.708444235529376));
#463=DIRECTION('',(-0.706394629112848,0.00133737572669913,0.707816953305505));
#464=DIRECTION('',(6.6284679211456E-17,0.728527719283283,-0.685016322605453));
#465=DIRECTION('',(0.57735026918962,0.577350269189628,-0.577350269189628));
#466=DIRECTION('',(0.,0.707106781186548,0.707106781186548));
#467=DIRECTION('',(0.,0.707106781186548,0.707106781186548));
#468=DIRECTION('',(-0.707106781186548,-9.80710970055613E-15,-0.707106781186548));
#469=DIRECTION('',(0.,-0.685016322605453,-0.728527719283283));
#470=DIRECTION('',(1.,0.,0.));
#471=DIRECTION('',(0.0944881498574181,-0.72526827633685,0.681951550240849));
#472=DIRECTION('',(-0.707106781186547,0.0434907974047353,-0.705768057183874));
#473=DIRECTION('',(0.,-0.998106758359145,-0.0615052755281972));
#474=DIRECTION('',(0.706477045312508,0.00133753176055855,-0.707734692844217));
#475=DIRECTION('',(0.707106781186548,-0.707106781186548,0.));
#476=DIRECTION('',(0.,0.,1.));
#477=DIRECTION('',(-0.707106781186548,-0.707106781186548,0.));
#478=DIRECTION('',(0.706477045312506,0.706477045312506,0.0421944177945831));
#479=DIRECTION('',(0.707106781186548,0.,-0.707106781186548));
#480=DIRECTION('',(0.,1.,0.));
#481=DIRECTION('',(0.707106781186548,0.,0.707106781186548));
#482=DIRECTION('',(0.,0.707106781186548,-0.707106781186548));
#483=DIRECTION('',(-1.,0.,0.));
#484=DIRECTION('',(0.0917434931716996,-0.704124680529185,-0.704124680529185));
#485=DIRECTION('',(-0.74895572078899,0.662620048215751,0.));
#486=DIRECTION('',(0.,0.,1.));
#487=DIRECTION('',(-0.661871840815666,-0.74811002616484,-0.0475084738433612));
#488=DIRECTION('',(0.662620048215751,0.74895572078899,1.08615094912963E-15));
#489=DIRECTION('',(-0.60906244315184,0.499742059808344,0.615874024456647));
#490=DIRECTION('',(0.711027841218826,0.,0.703163856445777));
#491=DIRECTION('',(0.709433137965767,-0.00391293240224102,0.70476188299032));
#492=DIRECTION('',(0.566593192730648,-0.600305140472785,0.564451851155828));
#493=DIRECTION('',(0.727231823753304,0.686391924865411,0.));
#494=DIRECTION('',(-1.25729133970128E-16,-0.685016322605422,-0.728527719283312));
#495=DIRECTION('',(0.577350269189626,-0.577350269189626,-0.577350269189626));
#496=DIRECTION('',(-0.707106781186548,0.,-0.707106781186548));
#497=DIRECTION('',(0.,-0.707106781186548,0.707106781186548));
#498=DIRECTION('',(-0.596231407392691,0.527500989642082,-0.605186594997903));
#499=DIRECTION('',(-0.712357658937528,0.,0.701816618322084));
#500=DIRECTION('',(0.710056961209444,-0.00524843859428639,-0.704124680529189));
#501=DIRECTION('',(-0.699220465685796,-0.129182190907194,0.703137754581957));
#502=DIRECTION('',(-0.121642032513503,0.990694852992911,0.0610485395348566));
#503=DIRECTION('',(-0.708714129166508,-0.00391426835547945,-0.705484912399266));
#504=DIRECTION('',(0.,-0.728527719283312,0.685016322605422));
#505=DIRECTION('',(-1.,0.,0.));
#506=DIRECTION('',(-0.0787296054439203,0.682890036891187,0.726266374508278));
#507=DIRECTION('',(0.,0.707106781186548,0.707106781186548));
#508=DIRECTION('',(1.,0.,0.));
#509=DIRECTION('',(-0.0812421023091206,0.704769366818818,-0.704769366818818));
#510=DIRECTION('',(0.701836114466196,0.086174639140533,0.707106781186542));
#511=DIRECTION('',(0.121869343405148,-0.992546151641322,0.));
#512=DIRECTION('',(-0.709417044495965,-0.005253243988162,0.704769366818827));
#513=DIRECTION('',(-0.539143250719048,-0.641958792188205,0.545172875642542));
#514=DIRECTION('',(0.,-0.64730914515209,-0.762227571400084));
#515=DIRECTION('',(-0.748369630703825,0.662101519510036,0.0395534284572559));
#516=DIRECTION('',(-0.549829946518643,-0.621469702003643,-0.558088200379482));
#517=DIRECTION('',(0.,0.668147758262791,-0.744028610423287));
#518=DIRECTION('',(0.748955720789022,-0.662620048215715,8.2544782954143E-16));
#519=DIRECTION('',(0.662620048215715,0.748955720789022,0.));
#520=DIRECTION('',(0.,0.,-1.));
#521=CARTESIAN_POINT('',(0.,0.,0.));
#522=CARTESIAN_POINT('',(0.0637236240588438,-0.0339130780599424,0.01866532));
#523=CARTESIAN_POINT('',(0.159716543513698,-0.0339130780599424,0.012503125924758));
#524=CARTESIAN_POINT('',(0.159716543513698,-0.0339130780599424,0.001));
#525=CARTESIAN_POINT('',(0.159716543513698,-0.0339130780599424,0.011503125924758));
#526=CARTESIAN_POINT('',(-0.033269295396011,-0.0339130780599424,0.011503125924758));
#527=CARTESIAN_POINT('',(-0.0322692953960109,-0.0339130780599424,0.011503125924758));
#528=CARTESIAN_POINT('',(-0.0322692953960109,-0.0339130780599424,0.01866532));
#529=CARTESIAN_POINT('',(-0.0322692953960109,-0.0339130780599424,0.001));
#530=CARTESIAN_POINT('',(0.0637236240588438,-0.0339130780599424,0.001));
#531=CARTESIAN_POINT('',(0.160716543513698,0.0160869219400576,0.01866532));
#532=CARTESIAN_POINT('',(0.160716543513698,0.0163375721614758,0.0145977716826691));
#533=CARTESIAN_POINT('',(0.160716543513698,0.0650869219400576,0.0176018012264439));
#534=CARTESIAN_POINT('',(0.160716543513698,-0.0329130780599424,0.0115628510327067));
#535=CARTESIAN_POINT('',(0.160716543513698,-0.0329130780599424,0.));
#536=CARTESIAN_POINT('',(0.160716543513698,-0.0329130780599424,0.001));
#537=CARTESIAN_POINT('',(0.160716543513698,0.0660869219400576,0.001));
#538=CARTESIAN_POINT('',(0.160716543513698,0.0650869219400576,0.001));
#539=CARTESIAN_POINT('',(0.160716543513698,0.0650869219400576,0.01866532));
#540=CARTESIAN_POINT('',(-0.0394085234411561,0.0160869219400575,0.01866532));
#541=CARTESIAN_POINT('',(-0.0394085234411561,0.0160869219400575,0.001));
#542=CARTESIAN_POINT('',(-0.0454258821428963,0.0650943757884163,0.001));
#543=CARTESIAN_POINT('',(-0.0333911647394161,-0.0329205319083012,0.001));
#544=CARTESIAN_POINT('',(-0.0333911647394161,-0.0329205319083012,0.01866532));
#545=CARTESIAN_POINT('',(-0.0333911647394161,-0.0329205319083012,0.0115624198578523));
#546=CARTESIAN_POINT('',(-0.0455551914317304,0.0661475154330363,0.0176671852015782));
#547=CARTESIAN_POINT('',(-0.0454258821428963,0.0650943757884163,0.0176022886927933));
#548=CARTESIAN_POINT('',(-0.0454258821428963,0.0650943757884163,0.));
#549=CARTESIAN_POINT('',(0.0575843960136986,0.0660869219400576,0.01866532));
#550=CARTESIAN_POINT('',(0.0575843960136986,0.0660869219400576,0.01766532));
#551=CARTESIAN_POINT('',(-0.0445477514863014,0.0660869219400576,0.01766532));
#552=CARTESIAN_POINT('',(0.159716543513698,0.0660869219400576,0.01766532));
#553=CARTESIAN_POINT('',(0.159716543513698,0.0660869219400576,0.01866532));
#554=CARTESIAN_POINT('',(0.159716543513698,0.0660869219400576,0.001));
#555=CARTESIAN_POINT('',(-0.0455477514863014,0.0660869219400576,0.001));
#556=CARTESIAN_POINT('',(-0.0445477514863014,0.0660869219400576,0.001));
#557=CARTESIAN_POINT('',(-0.0445477514863014,0.0660869219400576,0.01866532));
#558=CARTESIAN_POINT('',(0.224205791950226,0.0122961346060038,0.));
#559=CARTESIAN_POINT('',(0.159716543513698,-0.0339130780599424,0.));
#560=CARTESIAN_POINT('',(0.159716543513698,0.0650869219400576,0.));
#561=CARTESIAN_POINT('',(0.159716543513698,-0.0329130780599424,0.));
#562=CARTESIAN_POINT('',(0.224205791950226,-0.0329130780599424,0.));
#563=CARTESIAN_POINT('',(-0.032384570131455,-0.0329130780599424,0.));
#564=CARTESIAN_POINT('',(-0.0340422041697044,-0.0194127322016371,0.));
#565=CARTESIAN_POINT('',(-0.0444174570999397,0.0650869219400576,0.));
#566=CARTESIAN_POINT('',(0.160716543513698,0.0650869219400576,0.));
#567=CARTESIAN_POINT('',(-0.388307382499979,0.0160869219400576,0.015584222962379));
#568=CARTESIAN_POINT('',(0.159716543513698,0.0160869219400576,0.015584222962379));
#569=CARTESIAN_POINT('',(0.159716543513698,-0.0329149713015833,0.0125646312002862));
#570=CARTESIAN_POINT('',(0.159716543513698,0.0650888151816984,0.0186038147244718));
#571=CARTESIAN_POINT('',(-0.388307382499979,0.0650888151816984,0.0186038147244718));
#572=CARTESIAN_POINT('',(-0.0444177178642135,0.0650888151816984,0.0186038147244718));
#573=CARTESIAN_POINT('',(-0.0322767213605223,-0.0337916663251902,0.0125106075514835));
#574=CARTESIAN_POINT('',(-0.0323843659740417,-0.0329149713015833,0.0125646312002862));
#575=CARTESIAN_POINT('',(0.160716543513698,-0.0329149713015833,0.0125646312002862));
#576=CARTESIAN_POINT('',(0.159716543513698,0.0660869219400576,0.01866532));
#577=CARTESIAN_POINT('',(0.159716543513698,0.0660869219400576,0.01766532));
#578=CARTESIAN_POINT('',(0.160716543513698,0.0650869219400576,0.001));
#579=CARTESIAN_POINT('',(0.159716543513698,0.0660869219400576,0.01766532));
#580=CARTESIAN_POINT('',(0.160184846160904,0.0650879285716262,0.0181345691508098));
#581=CARTESIAN_POINT('',(0.159716543513698,0.0660869219400576,0.01766532));
#582=CARTESIAN_POINT('',(0.160716543513698,0.0650869219400576,0.001));
#583=CARTESIAN_POINT('',(0.159716543513698,0.0655869219400576,0.000500000000000007));
#584=CARTESIAN_POINT('',(0.160716543513698,0.0650869219400576,0.001));
#585=CARTESIAN_POINT('',(0.0575843960136986,0.0660869219400576,0.01766532));
#586=CARTESIAN_POINT('',(-0.0444177178642135,0.0650888151816984,0.0186038147244718));
#587=CARTESIAN_POINT('',(0.160716543513698,0.0163375721614758,0.0145977716826691));
#588=CARTESIAN_POINT('',(0.160246351215976,-0.0329139682475797,0.0120338803515133));
#589=CARTESIAN_POINT('',(0.160716543513698,-0.0329130780599424,0.01866532));
#590=CARTESIAN_POINT('',(0.160716543513698,-0.0329130780599424,0.001));
#591=CARTESIAN_POINT('',(0.159716543513698,-0.0339130780599424,0.011503125924758));
#592=CARTESIAN_POINT('',(0.159716543513698,0.0122961346060038,0.));
#593=CARTESIAN_POINT('',(0.160716543513698,-0.0329130780599424,0.001));
#594=CARTESIAN_POINT('',(0.224205791950226,0.0650869219400576,0.));
#595=CARTESIAN_POINT('',(-0.0444174570999397,0.0650869219400576,0.));
#596=CARTESIAN_POINT('',(-0.0454258821428963,0.0650943757884163,0.01866532));
#597=CARTESIAN_POINT('',(-0.0449554920927921,0.0656260550214495,0.0176360528024192));
#598=CARTESIAN_POINT('',(-0.0449868168145989,0.0655906488642369,0.001));
#599=CARTESIAN_POINT('',(-0.0444177178642135,0.0650888151816984,0.0186038147244718));
#600=CARTESIAN_POINT('',(-0.0444177178642135,0.0650888151816984,0.0186038147244718));
#601=CARTESIAN_POINT('',(0.159716543513698,-0.0339130780599424,0.011503125924758));
#602=CARTESIAN_POINT('',(0.159716543513698,-0.0339130780599424,0.011503125924758));
#603=CARTESIAN_POINT('',(0.160716543513698,-0.0329130780599424,0.001));
#604=CARTESIAN_POINT('',(0.159716543513698,-0.0334130780599424,0.0005));
#605=CARTESIAN_POINT('',(-0.0444174570999397,0.0650869219400576,0.));
#606=CARTESIAN_POINT('',(-0.0444174570999397,0.0650869219400576,1.07610046084135E-18));
#607=CARTESIAN_POINT('',(-0.0435785304868316,0.0582541824623166,0.0181826513919735));
#608=CARTESIAN_POINT('',(-0.0333911647394161,-0.0329205319083012,0.0115624198578523));
#609=CARTESIAN_POINT('',(-0.388307382499979,-0.0329149713015833,0.0125646312002862));
#610=CARTESIAN_POINT('',(-0.0323330024006403,-0.0333604920473956,0.0120908115231061));
#611=CARTESIAN_POINT('',(0.0637236240588438,-0.0339130780599424,0.001));
#612=CARTESIAN_POINT('',(-0.0322692953960109,-0.0339130780599424,0.001));
#613=CARTESIAN_POINT('',(-0.0394085234411561,0.0160869219400575,0.001));
#614=CARTESIAN_POINT('',(-0.032830257664286,-0.0329163783828915,0.000442767653736714));
#615=CARTESIAN_POINT('',(-0.0333911647394161,-0.0329205319083012,0.0115624198578523));
#616=CARTESIAN_POINT('',(-0.0333911647394161,-0.0329205319083012,0.0115624198578523));
#617=CARTESIAN_POINT('',(-0.0322692953960109,-0.0339130780599424,0.001));
#618=CARTESIAN_POINT('',(-0.0322692953960109,-0.0339130780599424,0.001));
#619=CARTESIAN_POINT('',(-0.0322692953960109,-0.0339130780599424,0.01866532));
#620=MECHANICAL_DESIGN_GEOMETRIC_PRESENTATION_REPRESENTATION('',(#381),
#621);
#621=(
GEOMETRIC_REPRESENTATION_CONTEXT(3)
GLOBAL_UNCERTAINTY_ASSIGNED_CONTEXT((#622))
GLOBAL_UNIT_ASSIGNED_CONTEXT((#625,#624,#623))
REPRESENTATION_CONTEXT('Part 1','TOP_LEVEL_ASSEMBLY_PART')
);
#622=UNCERTAINTY_MEASURE_WITH_UNIT(LENGTH_MEASURE(1.E-8),#625,
'DISTANCE_ACCURACY_VALUE','Maximum Tolerance applied to model');
#623=(
NAMED_UNIT(*)
SI_UNIT($,.STERADIAN.)
SOLID_ANGLE_UNIT()
);
#624=(
NAMED_UNIT(*)
PLANE_ANGLE_UNIT()
SI_UNIT($,.RADIAN.)
);
#625=(
LENGTH_UNIT()
NAMED_UNIT(*)
SI_UNIT($,.METRE.)
);
#626=PRODUCT_DEFINITION_SHAPE('','',#627);
#627=PRODUCT_DEFINITION('','',#629,#628);
#628=PRODUCT_DEFINITION_CONTEXT('',#635,'design');
#629=PRODUCT_DEFINITION_FORMATION_WITH_SPECIFIED_SOURCE('','',#631,
 .NOT_KNOWN.);
#630=PRODUCT_RELATED_PRODUCT_CATEGORY('','',(#631));
#631=PRODUCT('Part 1','Part 1','Part 1',(#633));
#632=PRODUCT_CATEGORY('','');
#633=PRODUCT_CONTEXT('',#635,'mechanical');
#634=APPLICATION_PROTOCOL_DEFINITION('international standard',
'ap242_managed_model_based_3d_engineering',2020,#635);
#635=APPLICATION_CONTEXT('managed model based 3d engineering');
ENDSEC;
END-ISO-10303-21;
